<?xml version="1.0" encoding="UTF-8"?> <svg xmlns="http://www.w3.org/2000/svg" width="350" height="80" viewBox="0 0 350 80" fill="none"> <path fill-rule="evenodd" clip-rule="evenodd" d="M324.999 37.5001C318.096 37.5001 312.499 31.9036 312.499 25.0001C312.499 18.0966 318.096 12.5001 324.999 12.5001C331.903 12.5001 337.499 18.0966 337.499 25.0001C337.499 31.9036 331.903 37.5001 324.999 37.5001ZM325.817 0.0130653C311.363 -0.448185 299.551 11.3641 300.012 25.8181C300.43 38.9078 311.091 49.5691 324.181 49.9871C338.635 50.4483 350.448 38.6358 349.986 24.1818C349.568 11.0921 338.907 0.431065 325.817 0.0130653Z" fill="#FF4060"></path> <mask id="mask0_39_2554" style="mask-type:alpha" maskUnits="userSpaceOnUse" x="299" y="0" width="51" height="51"> <path fill-rule="evenodd" clip-rule="evenodd" d="M324.999 37.5001C318.096 37.5001 312.499 31.9036 312.499 25.0001C312.499 18.0966 318.096 12.5001 324.999 12.5001C331.903 12.5001 337.499 18.0966 337.499 25.0001C337.499 31.9036 331.903 37.5001 324.999 37.5001ZM325.817 0.0130653C311.363 -0.448185 299.551 11.3641 300.012 25.8181C300.43 38.9078 311.091 49.5691 324.181 49.9871C338.635 50.4483 350.448 38.6358 349.986 24.1818C349.568 11.0921 338.907 0.431065 325.817 0.0130653Z" fill="white"></path> </mask> <g mask="url(#mask0_39_2554)"> <path fill-rule="evenodd" clip-rule="evenodd" d="M349.999 5L344.999 0L324.999 20L304.999 0L299.999 5L319.999 25L299.999 45L304.999 50L324.999 30L344.999 50L349.999 45L329.999 25L349.999 5Z" fill="#E1E4E6"></path> </g> <path fill-rule="evenodd" clip-rule="evenodd" d="M176.506 32.5584C170.776 32.5584 166.379 35.7369 164.081 40.2624H189.086C187.057 35.5385 183.074 32.5584 176.506 32.5584ZM152.25 47.7958C152.25 34.1237 163.132 23 176.506 23C188.402 23 197.638 30.3669 200.036 41.769C200.398 43.4902 200.444 46.8953 200.061 49.3878H162.378C163.043 56.82 168.344 62.9613 176.506 62.9613C184.106 62.9613 188.076 58.5425 190.572 54.8337L198.621 59.912C194.097 66.0733 188.636 72.593 176.506 72.593C163.132 72.593 152.25 61.4693 152.25 47.7958ZM275.506 46.9945L294.999 71.9848H282.628L263.825 47.8764V71.9848H253.771V23.8493H263.825V46.5243L281.911 23.8493H293.934L275.506 46.9945ZM229.539 33.3855C233.504 33.3855 237.053 34.7284 239.533 37.061L246.42 29.8752C242.067 25.7801 236.072 23.5247 229.539 23.5247C216.164 23.5247 205.282 34.4126 205.282 47.7957C205.282 61.1801 216.164 72.068 229.539 72.068C235.704 72.068 241.305 70.0217 246.183 65.9852L239.775 58.3732C236.705 60.915 233.357 62.2072 229.539 62.2072C221.708 62.2072 215.338 55.6315 215.338 47.7957C215.338 39.9611 221.708 33.3855 229.539 33.3855ZM27.3563 47.9165C27.3563 55.859 33.728 62.3213 41.5588 62.3213C49.3883 62.3213 55.76 55.859 55.76 47.9165C55.76 39.9754 49.3883 33.513 41.5588 33.513C33.728 33.513 27.3563 39.9754 27.3563 47.9165ZM17.8068 42.9821C20.0913 31.957 29.8725 23.6456 41.5588 23.6456C54.9333 23.6456 65.8155 34.5348 65.8155 47.9165C65.8155 61.3009 54.9333 72.1888 41.5588 72.1888C29.8725 72.1888 20.0913 63.8773 17.8068 52.8509H10.0545V71.985H-0.000976562V52.8509V42.9821V23.8494H10.0545V42.9821H17.8068ZM90.2106 45.6807C94.4668 43.7224 97.634 40.412 97.634 35.3364C97.634 27.9241 90.9707 23.3508 83.3063 23.3508C77.3367 23.3508 71.8703 25.337 68.2105 29.0898L75.4303 35.9425C77.2741 33.9322 79.5028 32.7586 82.1734 32.7586C85.061 32.7586 87.243 34.8621 87.243 37.4425C87.243 40.0496 85.6734 42.8858 77.997 43.2695V45.69V50.3647C85.1915 49.0231 88.5198 51.7901 88.5198 55.8652C88.5198 59.3822 86.411 62.1025 82.1721 62.1025C78.929 62.1025 76.7079 59.9643 74.8181 58.145L74.8176 58.1446C74.6076 57.9423 74.4016 57.744 74.1988 57.5531L67.3265 65.1039C70.4245 68.349 75.2452 72.219 82.8377 72.219C91.3555 72.219 98.7257 65.345 98.7257 57.3906C98.7257 51.2665 94.9447 47.4139 90.2106 45.6807ZM135.431 34.8698H122.852C122.783 44.6054 122.298 53.5949 119.035 62.0889H135.431V34.8698ZM112.81 25.0037H145.486V62.0889H150.513V80H140.459V71.9563H112.896V80H102.842V62.0889H108.013C112.547 53.5256 112.81 44.0818 112.81 30.034V25.0037Z" fill="#FF4060"></path> </svg> 